PathFileType	4	(X/Y/Z)	Run_400 02
DataRate	CameraRate	NumFrames	NumMarkers	Units	OrigDataRate	OrigDataStartFrame	OrigNumFrames
100	100	4	42	mm	100	238	128
Frame#	Time	RASI			LPSI			RPSI			RTH1			RTH2			RTH3			LTH1			LTH2			LTH3			RTB1			RTB2			RTB3			LTB1			LTB2			LTB3			RCAL			RTOE			RMT5			LCAL			LTOE			LMT5			LACR			RACR			CLAV			C7			RUA1			RUA2			RUA3			RLEL			RMEL			LUA2			LUA3			LLEL			LMEL			RFAsuperior			RFAradius			RFAulna			LFAsuperior			LFAradius			LFAulna			LUA1			LASI		
		X1	Y1	Z1	X2	Y2	Z2	X3	Y3	Z3	X4	Y4	Z4	X5	Y5	Z5	X6	Y6	Z6	X7	Y7	Z7	X8	Y8	Z8	X9	Y9	Z9	X10	Y10	Z10	X11	Y11	Z11	X12	Y12	Z12	X13	Y13	Z13	X14	Y14	Z14	X15	Y15	Z15	X16	Y16	Z16	X17	Y17	Z17	X18	Y18	Z18	X19	Y19	Z19	X20	Y20	Z20	X21	Y21	Z21	X22	Y22	Z22	X23	Y23	Z23	X24	Y24	Z24	X25	Y25	Z25	X26	Y26	Z26	X27	Y27	Z27	X28	Y28	Z28	X29	Y29	Z29	X30	Y30	Z30	X31	Y31	Z31	X32	Y32	Z32	X33	Y33	Z33	X34	Y34	Z34	X35	Y35	Z35	X36	Y36	Z36	X37	Y37	Z37	X38	Y38	Z38	X39	Y39	Z39	X40	Y40	Z40	X41	Y41	Z41	X42	Y42	Z42	

238	  2.380000	1237.852676	1017.917779	-205.480720	1070.858344	1087.174263	-376.230691	1068.716752	1085.044529	-282.772817	1142.197442	837.664760	-167.545451	1126.030089	735.028531	-196.149631	1005.137383	642.464095	-197.009929	1181.076246	884.752110	-519.594829	1278.395871	774.417287	-494.536783	1240.877333	643.658364	-481.509299	824.503726	444.077056	-271.585769	712.040577	442.447796	-221.195591	649.563009	394.790779	-282.175803	1385.458489	403.951374	-404.350531	1366.620578	332.097200	-438.946745	1417.933149	270.902258	-382.093611	533.918938	470.941628	-250.874472	545.585183	256.418380	-349.105588	508.296562	241.206307	-280.280608	1363.337948	 98.334590	-343.233671	1625.586760	147.452341	-343.434936	1570.125703	159.870275	-426.914612	1186.914061	1565.828827	-487.103420	1281.629184	1546.850080	-178.313195	1292.484115	1490.946570	-319.907314	1176.054820	1580.221559	-315.567930	1272.585450	1425.089968	-80.473845	1213.483522	1417.440315	-48.736284	1237.000765	1352.352151	-28.676273	1215.354885	1274.034806	  2.896748	1133.806070	1269.337493	-51.258694	1006.232730	1509.010881	-470.490640	965.197433	1463.045354	-537.212823	904.514520	1413.414558	-541.438072	913.507509	1391.687388	-450.841237	1280.023176	1286.616307	-58.532793	1348.549489	1319.620709	-211.854813	1363.375572	1250.364783	-193.514645	967.347887	1355.696177	-565.193953	1133.469106	1279.942788	-548.695888	1093.582324	1222.870843	-563.261488	1069.109285	1526.820434	-536.982139	1242.756955	1030.191140	-452.336926	
239	  2.390000	1236.704681	1014.347274	-204.523839	1069.228488	1082.267487	-376.070332	1066.922187	1079.177448	-282.868006	1143.251812	833.138906	-166.833142	1129.141378	730.042026	-193.293112	1010.902773	634.086413	-195.669607	1180.764452	879.988941	-519.435187	1275.520825	765.931477	-497.622884	1238.847100	638.396368	-481.142623	828.825077	442.983917	-268.215278	716.406423	452.832755	-218.425540	650.828456	408.926785	-278.793157	1382.557617	399.259157	-401.727970	1364.714087	327.426514	-437.304821	1414.418078	265.762068	-379.685116	540.786902	495.176698	-248.062072	537.754416	279.100463	-343.184475	498.959820	267.807319	-273.884790	1358.586168	 92.611409	-342.070813	1627.747027	148.364609	-342.194931	1572.374199	160.094833	-425.906633	1189.662846	1559.749131	-488.602028	1280.832964	1540.843550	-178.188110	1292.596413	1484.931647	-319.808913	1176.622290	1575.232365	-316.908158	1267.592237	1420.041362	-79.244257	1207.577496	1413.244838	-49.235798	1229.788960	1347.716386	-28.288364	1206.393666	1269.766577	  2.793768	1125.950728	1266.428589	-53.017191	1008.076333	1499.071885	-476.924940	970.586200	1450.250711	-543.717866	911.175825	1399.753782	-548.590555	918.586247	1378.360898	-457.636305	1272.839992	1278.099575	-57.135951	1346.949064	1303.752998	-209.910757	1358.311763	1234.518055	-189.041918	976.311282	1343.803913	-571.376169	1143.725251	1272.625965	-551.171240	1105.420166	1214.849770	-567.498290	1072.918866	1517.491620	-541.307828	1241.334760	1025.611039	-451.861794	
240	  2.400000	1235.120229	1009.723402	-203.354097	1067.849218	1076.346744	-375.988239	1065.100667	1072.418111	-283.003873	1144.440159	827.793438	-165.402642	1132.726096	724.103436	-189.471351	1017.699556	624.395297	-193.525068	1179.936094	874.789146	-519.853309	1275.335658	760.764147	-500.970359	1240.673465	634.442938	-480.410520	835.583486	441.223049	-264.526767	724.332773	461.793183	-215.824461	655.860765	422.252614	-275.703845	1377.781815	391.794367	-398.977483	1360.371022	320.345967	-435.873980	1406.808015	257.247337	-377.350544	552.287496	518.009795	-247.039757	534.337086	300.021994	-335.729169	495.262238	293.740522	-265.539583	1346.205500	 87.781179	-341.818670	1618.383183	137.585760	-337.758361	1563.110451	148.640298	-421.702652	1192.256490	1552.577462	-490.202158	1279.402734	1533.784145	-177.961862	1292.257849	1477.571670	-319.903384	1176.710205	1569.027978	-318.413483	1261.492211	1413.853008	-78.382978	1200.453459	1407.920845	-50.305939	1221.355754	1341.880269	-28.355024	1196.230589	1264.271193	  1.923165	1117.206030	1262.173976	-55.779500	1009.874274	1487.662160	-484.332293	976.655228	1435.701956	-550.983725	918.747807	1384.262893	-556.822151	924.034534	1363.406176	-465.335219	1264.490188	1268.226511	-56.069253	1344.801323	1285.892553	-207.363406	1352.448425	1216.869412	-184.533350	986.085108	1330.360813	-578.057221	1154.664939	1263.926910	-553.785678	1118.085191	1205.443120	-571.840245	1077.106380	1506.877531	-546.084179	1240.145308	1020.086575	-451.582422	
241	  2.410000	1233.150664	1004.159921	-201.809079	1066.685232	1069.275766	-375.966649	1063.066168	1064.902580	-282.959477	1145.389336	821.521719	-163.465584	1136.668946	717.069957	-185.120527	1025.270930	613.750671	-190.550181	1178.677649	869.110601	-520.508490	1276.508365	758.828121	-502.941169	1243.797926	630.448818	-479.474421	844.583564	438.651465	-260.353738	735.327893	469.123521	-213.113587	664.383215	434.030734	-272.708817	1371.383986	381.652787	-396.990412	1352.630844	310.958223	-434.406205	1395.376871	245.954991	-375.406606	567.571452	538.578423	-248.029057	535.333535	318.455674	-326.867577	496.755075	317.966477	-255.903006	1326.980765	 85.996415	-341.547503	1596.561017	114.218935	-330.699410	1541.382448	124.589220	-414.879053	1194.701564	1544.290573	-491.859275	1277.309138	1525.736754	-177.651129	1291.463119	1468.991492	-320.106183	1176.379652	1561.705815	-320.003101	1254.297536	1406.579556	-78.023956	1192.310464	1401.455760	-51.846357	1211.939377	1334.874960	-28.877747	1185.069689	1257.611908	  0.255005	1107.846672	1256.667607	-59.466723	1011.718059	1474.766984	-492.692121	983.311683	1419.687378	-558.821105	927.127739	1367.151225	-565.953362	929.905514	1346.822703	-473.962609	1255.154325	1257.133002	-55.406687	1341.949176	1266.196854	-204.132600	1345.684842	1197.696404	-179.693683	996.546950	1315.516803	-585.173894	1166.090202	1253.927935	-556.439002	1131.411041	1194.720198	-576.143545	1081.604293	1494.980339	-551.276173	1239.226544	1013.453766	-451.416206	
